<?xml version="1.0" encoding="UTF-8"?><svg id="Layer_2" xmlns="http://www.w3.org/2000/svg" viewBox="0 0 4134.86 870.71"><defs><style>.cls-1{fill:#f6921e;stroke-width:0px;}</style></defs><g id="Layer_2-2"><path class="cls-1" d="M1228.21,686.04c-43.71,0-83.57-11.24-119.57-33.7-36.01-22.46-64.63-52.63-85.87-90.49-21.24-37.85-31.86-79.87-31.86-126.03,0-34.47,6.15-66.94,18.47-97.41,12.31-30.47,29.23-57.25,50.79-80.33,21.54-23.08,46.63-41.23,75.25-54.47,28.63-13.23,59.56-19.86,92.8-19.86,41.85,0,74.47,7.85,97.87,23.55,23.39,15.69,41.55,36.47,54.48,62.32v-75.71h123.72v480.13h-42.47c-43.35,0-78.48-35.14-78.48-78.48h0c-12.93,27.09-31.24,48.94-54.94,65.56-23.7,16.62-57.1,24.93-100.18,24.93ZM1248.53,573.39c27.7,0,51.54-6.31,71.56-18.93,20-12.61,35.55-29.39,46.63-50.32,11.08-20.92,16.62-43.7,16.62-68.33s-5.54-48.31-16.62-69.25c-11.08-20.92-26.63-37.85-46.63-50.79-20.01-12.93-43.86-19.39-71.56-19.39s-49.72,6.32-69.71,18.93c-20.01,12.62-35.55,29.4-46.63,50.32-11.08,20.93-16.62,44.02-16.62,69.25s5.54,46.63,16.62,67.87,26.62,38.32,46.63,51.24c20,12.93,43.24,19.39,69.71,19.39Z"/><path class="cls-1" d="M1811.76,870.71c-48.64,0-91.87-6.62-129.73-19.85-37.85-13.24-71.25-36.79-100.18-70.63l77.56-91.41c22.76,25.85,46.47,43.4,71.09,52.63,24.62,9.23,52.01,13.85,82.18,13.85,22.16,0,42.77-5.54,61.87-16.62,19.07-11.08,34.31-26.63,45.7-46.63,11.38-19.99,17.08-42.61,17.08-67.86v-21.24c-12.93,22.16-30.63,40.02-53.09,53.55-22.48,13.55-53.1,20.32-91.87,20.32-43.71,0-83.26-11.09-118.65-33.25-35.41-22.16-63.25-51.85-83.56-89.1-20.31-37.24-30.47-78.94-30.47-125.11s10.16-88.01,30.47-125.57c20.31-37.54,48.15-67.24,83.56-89.1,35.39-21.84,74.93-32.78,118.65-32.78,40.01,0,71.24,7.08,93.72,21.24,22.46,14.17,40.16,32.94,53.09,56.33v-65.56h122.8v437.66c0,49.24-10.62,91.71-31.86,127.42-21.23,35.7-50.64,63.25-88.17,82.64-37.56,19.39-80.96,29.08-130.19,29.08ZM1812.68,563.24c41.23,0,73.25-12.93,96.03-38.79,22.76-25.85,34.16-57.55,34.16-95.1s-11.39-69.25-34.16-95.1c-22.78-25.86-54.8-38.79-96.03-38.79s-72.18,12.93-94.64,38.79c-22.47,25.85-33.7,57.56-33.7,95.1,0,24.01,5.08,46.17,15.24,66.48,10.15,20.31,24.77,36.63,43.86,48.93,19.08,12.32,42.16,18.47,69.25,18.47Z"/><path class="cls-1" d="M2354.67,686.04c-43.71,0-83.57-11.24-119.57-33.7-36.01-22.46-64.63-52.63-85.87-90.49-21.24-37.85-31.86-79.87-31.86-126.03,0-34.47,6.15-66.94,18.47-97.41,12.31-30.47,29.23-57.25,50.79-80.33,21.54-23.08,46.63-41.23,75.25-54.47,28.63-13.23,59.56-19.86,92.8-19.86,41.85,0,74.47,7.85,97.87,23.55,23.39,15.69,41.55,36.47,54.48,62.32v-75.71h123.72v480.13h-42.47c-43.35,0-78.48-35.14-78.48-78.48h0c-12.93,27.09-31.24,48.94-54.94,65.56-23.7,16.62-57.1,24.93-100.18,24.93ZM2374.99,573.39c27.7,0,51.54-6.31,71.56-18.93,20-12.61,35.55-29.39,46.63-50.32,11.08-20.92,16.62-43.7,16.62-68.33s-5.54-48.31-16.62-69.25c-11.08-20.92-26.63-37.85-46.63-50.79-20.01-12.93-43.86-19.39-71.56-19.39s-49.72,6.32-69.71,18.93c-20.01,12.62-35.55,29.4-46.63,50.32-11.08,20.93-16.62,44.02-16.62,69.25s5.54,46.63,16.62,67.87c11.08,21.24,26.62,38.32,46.63,51.24,20,12.93,43.24,19.39,69.71,19.39Z"/><path class="cls-1" d="M2886.51,674.04c-47.41,0-83.72-11.68-108.95-35.09-25.25-23.39-37.86-61.24-37.86-113.57v-225.29h-67.4v-106.18h67.4v-96.95l124.65-12.93v109.88h101.57v106.18h-101.57v218.83c0,29.55,12.93,44.33,38.79,44.33h51.71v110.8h-68.33Z"/><path class="cls-1" d="M3069.32,154.2c-20.94,0-38.64-7.23-53.1-21.7-14.47-14.46-21.7-31.86-21.7-52.17s7.23-36.77,21.7-51.24c14.46-14.46,32.16-21.7,53.1-21.7s39.38,7.24,53.55,21.7c14.16,14.47,21.24,31.55,21.24,51.24,0,20.93-7.08,38.48-21.24,52.63-14.17,14.17-32.01,21.23-53.55,21.23ZM3007.45,674.04V193.9h124.65v480.13h-124.65Z"/><path class="cls-1" d="M3205.97,674.04V0h124.65v387.8l180.05-193.9h177.28l-226.21,223.45,227.14,256.69h-165.28l-192.98-228.06v228.06h-124.65Z"/><path class="cls-1" d="M3891.1,686.04c-49.25,0-92.65-11.4-130.19-34.17-37.56-22.76-66.64-53.1-87.26-90.95-20.63-37.86-30.93-79.87-30.93-126.04s10.76-88.48,32.32-126.95c21.54-38.46,50.93-69.09,88.17-91.87,37.24-22.76,79.87-34.17,127.89-34.17s90.32,11.4,126.95,34.17c36.62,22.78,65.24,53.41,85.87,91.87,20.62,38.48,30.94,80.79,30.94,126.95,0,6.78-.32,13.85-.93,21.24-.62,7.39-1.54,15.09-2.77,23.09h-359.18c6.76,28.32,20.45,51.4,41.09,69.25,20.62,17.86,46.63,26.78,78.02,26.78,27.08,0,50.62-6.15,70.63-18.47,19.99-12.31,35.55-27.7,46.63-46.17l96.95,72.94c-19.09,30.16-47.72,54.79-85.87,73.86-38.17,19.07-80.96,28.63-128.34,28.63ZM3889.25,289.01c-29.55,0-54.79,8.93-75.72,26.77-20.93,17.86-34.78,41.25-41.55,70.18h237.29c-6.78-26.46-20.78-49.24-42.01-68.33-21.24-19.07-47.25-28.62-78.02-28.62Z"/><path class="cls-1" d="M441.24,417.74c-9.31-7.39-20.03-12.1-32.13-14.07-12.1-1.97-24.88-.21-38.25,5.31s-22.77,12.79-30,22.62c-7.31,9.8-11.63,20.6-12.99,32.46-1.44,12.54.54,24.91,5.98,37.16,3.22,7.27,7.72,13.98,13.28,19.73,10.91,11.26,23.88,18.08,39.08,20.52,12.1,1.97,24.54.29,37.29-4.97,13.37-5.52,23.71-13.18,30.96-22.96,7.25-9.78,11.57-20.58,12.94-32.44,1.36-11.86-.3-23.47-4.96-34.77-4.81-11.65-11.86-21.15-21.19-28.59ZM441.24,417.74c-9.31-7.39-20.03-12.1-32.13-14.07-12.1-1.97-24.88-.21-38.25,5.31s-22.77,12.79-30,22.62c-7.31,9.8-11.63,20.6-12.99,32.46-1.44,12.54.54,24.91,5.98,37.16,3.22,7.27,7.72,13.98,13.28,19.73,10.91,11.26,23.88,18.08,39.08,20.52,12.1,1.97,24.54.29,37.29-4.97,13.37-5.52,23.71-13.18,30.96-22.96,7.25-9.78,11.57-20.58,12.94-32.44,1.36-11.86-.3-23.47-4.96-34.77-4.81-11.65-11.86-21.15-21.19-28.59ZM664.98,323c-9.68-23.45-19.03-46.99-28.06-70.65l-47.82,19.74-8.26-20,48.4-19.98c-25.06-66.97-47.7-134.89-67.8-203.67-6.87-16.65-26.66-24.29-44.12-17.08l-133.5,55.1c24.89,60.31-6.2,130.39-69.44,156.49-63.24,26.1-134.71-1.64-159.6-61.95L21.75,215.89c-18.3,7.55-26.1,25.52-19.33,41.93.78,1.9,1.77,3.84,2.96,5.68,38.11,59.19,72.55,120.47,103.02,183.58l47.19-19.48,8.26,20-46.14,19.05c54.94,117.5,96.41,241.03,123.62,368.51l1.12,5.1c3.81,17.86,21.38,26.53,39.05,19.23l138.06-56.98c-24.89-60.31,6.2-130.39,69.44-156.49,63.24-26.1,134.71,1.64,159.6,61.95l133.5-55.1c17.46-7.21,26.08-26.62,19.2-43.28l-26.88-51.59c-40.01-76.72-76.49-155.14-109.45-235ZM203.3,407.9l47.19-19.48,8.26,20-47.19,19.48-8.26-20ZM392.07,329.99l47.19-19.48,5.3,12.85,30.31-12.51,91.23,221.04-20.5,8.46c-20.94,8.64-44.59-.54-52.84-20.51h0c-1.08,15.08-5.74,28.77-14.01,41.14-8.33,12.39-22.85,22.84-43.67,31.43-21.08,8.7-42.45,11.49-64.08,8.3-21.68-3.17-41.19-11.33-58.67-24.54-17.41-13.18-30.53-30.42-39.31-51.67-6.54-15.85-9.78-32.02-9.6-48.54.15-16.45,3.23-32.18,9.21-47.11,6.06-14.91,14.72-28.26,26-40.05,1.67-1.74,3.37-3.44,5.16-5.05l-6.11-14.8,47.19-19.48,47.19-19.48ZM541.91,291.56l-47.19,19.48-8.26-20,47.19-19.48,8.26,20ZM409.1,403.67c-12.1-1.97-24.88-.21-38.25,5.31s-22.77,12.79-30,22.62c-7.31,9.8-11.63,20.6-12.99,32.46-1.44,12.54.54,24.91,5.98,37.16,3.22,7.27,7.72,13.98,13.28,19.73,10.91,11.26,23.88,18.08,39.08,20.52,12.1,1.97,24.54.29,37.29-4.97,13.37-5.52,23.71-13.18,30.96-22.96,7.25-9.78,11.57-20.58,12.94-32.44,1.36-11.86-.3-23.47-4.96-34.77-4.81-11.65-11.86-21.15-21.19-28.59-9.31-7.39-20.03-12.1-32.13-14.07Z"/></g></svg>