<?xml version="1.0" encoding="UTF-8"?><svg id="Layer_2" xmlns="http://www.w3.org/2000/svg" viewBox="0 0 4466.4 4743.01"><defs><style>.cls-1{fill:#f6921e;stroke-width:0px;}</style></defs><g id="Layer_1-2"><path class="cls-1" d="M2452.18,2273.63c-51.75-41.09-111.32-67.25-178.59-78.19-67.27-10.94-138.26-1.16-212.57,29.51-70.81,29.23-126.52,71.09-166.72,125.74-40.6,54.49-64.61,114.49-72.2,180.4-8.02,69.69,3.01,138.42,33.23,206.52,17.92,40.39,42.9,77.72,73.82,109.66,60.61,62.6,132.74,100.5,217.16,114.02,67.27,10.94,136.4,1.6,207.22-27.63,74.31-30.67,131.77-73.25,172.08-127.62,40.31-54.37,64.32-114.37,71.91-180.28,7.58-65.91-1.64-130.41-27.57-193.22-26.73-64.76-65.91-117.54-117.77-158.92ZM2452.18,2273.63c-51.75-41.09-111.32-67.25-178.59-78.19-67.27-10.94-138.26-1.16-212.57,29.51-70.81,29.23-126.52,71.09-166.72,125.74-40.6,54.49-64.61,114.49-72.2,180.4-8.02,69.69,3.01,138.42,33.23,206.52,17.92,40.39,42.9,77.72,73.82,109.66,60.61,62.6,132.74,100.5,217.16,114.02,67.27,10.94,136.4,1.6,207.22-27.63,74.31-30.67,131.77-73.25,172.08-127.62,40.31-54.37,64.32-114.37,71.91-180.28,7.58-65.91-1.64-130.41-27.57-193.22-26.73-64.76-65.91-117.54-117.77-158.92ZM3695.6,1747.09c-53.8-130.35-105.73-261.14-155.92-392.65l-265.77,109.69-45.88-111.17,268.97-111.02c-139.3-372.19-265.07-749.64-376.81-1131.91-38.2-92.55-148.14-134.99-245.18-94.94l-741.94,306.23c138.34,335.18-34.47,724.63-385.92,869.68-351.45,145.06-748.64-9.12-886.98-344.31L120.85,1151.83c-101.7,41.98-145.07,141.84-107.44,233,4.36,10.56,9.82,21.32,16.45,31.59,211.82,328.93,403.22,669.53,572.52,1020.23l262.27-108.25,45.88,111.17-256.44,105.84c305.33,653.01,535.82,1339.51,687.04,2048l6.24,28.33c21.18,99.25,118.83,147.42,217.03,106.89l767.29-316.69c-138.34-335.18,34.47-724.63,385.92-869.68,351.45-145.06,748.64,9.13,886.98,344.31l741.94-306.23c97.04-40.05,144.93-147.97,106.73-240.52l-149.37-286.72c-222.37-426.38-425.09-862.17-608.28-1306.02ZM1129.84,2218.96l262.27-108.25,45.88,111.17-262.27,108.25-45.88-111.17ZM2178.93,1785.96l262.27-108.25,29.48,71.43,168.44-69.52,507.03,1228.44-113.94,47.03c-116.36,48.03-247.83-3-293.63-113.98h0c-6,83.79-31.9,159.87-77.88,228.61-46.27,68.86-127.02,126.91-242.71,174.66-117.15,48.35-235.91,63.87-356.12,46.15-120.5-17.6-228.91-62.95-326.06-136.37-96.74-73.26-169.7-169.03-218.45-287.15-36.36-88.1-54.34-177.94-53.36-269.75.81-91.41,17.94-178.82,51.2-261.84,33.67-82.86,81.83-157.05,144.48-222.59,9.3-9.69,18.72-19.11,28.65-28.09l-33.95-82.27,262.27-108.25,262.27-108.25ZM3011.63,1572.38l-262.27,108.25-45.88-111.17,262.27-108.25,45.88,111.17ZM2273.59,2195.44c-67.27-10.94-138.26-1.16-212.57,29.51-70.81,29.23-126.52,71.09-166.72,125.74-40.6,54.49-64.61,114.49-72.2,180.4-8.02,69.69,3.01,138.42,33.23,206.52,17.92,40.39,42.9,77.72,73.82,109.66,60.61,62.6,132.74,100.5,217.16,114.02,67.27,10.94,136.4,1.6,207.22-27.63,74.31-30.67,131.77-73.25,172.08-127.62,40.31-54.37,64.32-114.37,71.91-180.28,7.58-65.91-1.64-130.41-27.57-193.22-26.73-64.76-65.91-117.54-117.77-158.92-51.75-41.09-111.32-67.25-178.59-78.19Z"/></g></svg>